<?xml version="1.0" encoding="UTF-8" standalone="no"?>
<!-- Created with Inkscape (http://www.inkscape.org/) -->

<svg
   width="54.923458mm"
   height="41.06609mm"
   viewBox="0 0 54.923461 41.066091"
   version="1.1"
   id="svg5"
   xml:space="preserve"
   inkscape:version="1.2 (1:1.2.1+202207142221+cd75a1ee6d)"
   sodipodi:docname="drawing.svg"
   xmlns:inkscape="http://www.inkscape.org/namespaces/inkscape"
   xmlns:sodipodi="http://sodipodi.sourceforge.net/DTD/sodipodi-0.dtd"
   xmlns="http://www.w3.org/2000/svg"
   xmlns:svg="http://www.w3.org/2000/svg"><sodipodi:namedview
     id="namedview7"
     pagecolor="#ffffff"
     bordercolor="#999999"
     borderopacity="1"
     inkscape:showpageshadow="0"
     inkscape:pageopacity="0"
     inkscape:pagecheckerboard="0"
     inkscape:deskcolor="#d1d1d1"
     inkscape:document-units="mm"
     showgrid="false"
     inkscape:zoom="0.5171307"
     inkscape:cx="674.87774"
     inkscape:cy="-921.4305"
     inkscape:window-width="3440"
     inkscape:window-height="1380"
     inkscape:window-x="0"
     inkscape:window-y="508"
     inkscape:window-maximized="1"
     inkscape:current-layer="layer1"
     showguides="true"><inkscape:grid
       type="xygrid"
       id="grid6984"
       originx="-62.114568"
       originy="386.26435" /></sodipodi:namedview><defs
     id="defs2"><clipPath
       clipPathUnits="userSpaceOnUse"
       id="clipPath58310-2-5"><path
         d="M 0,0 H 804 V 267 H 0 Z"
         id="path58308-24-9" /></clipPath></defs><g
     inkscape:label="Layer 1"
     inkscape:groupmode="layer"
     id="layer1"
     transform="translate(8.8046669,571.94377)"><g
       id="g57996-1-2"
       transform="matrix(0.6017009,0,0,0.6017009,-216.5754,-631.88822)"><path
         d="m 346.211,167.5 h 7.5 l 3.75,-3.75 h -7.5 z"
         style="fill:none;stroke:#000000;stroke-width:0.749999;stroke-linecap:butt;stroke-linejoin:miter;stroke-miterlimit:4;stroke-dasharray:none;stroke-opacity:1"
         id="path57998-2-2" /></g><g
       id="g58000-8-8"
       transform="matrix(0.6017009,0,0,0.6017009,-216.5754,-631.88822)"><path
         d="m 353.711,167.5 h 7.5 l 3.75,-3.75 h -7.5 z"
         style="fill:none;stroke:#000000;stroke-width:0.749999;stroke-linecap:butt;stroke-linejoin:miter;stroke-miterlimit:4;stroke-dasharray:none;stroke-opacity:1"
         id="path58002-9-9" /></g><g
       id="g58004-3-7"
       transform="matrix(0.6017009,0,0,0.6017009,-216.5754,-631.88822)"><path
         d="m 361.211,167.5 h 7.5 l 3.75,-3.75 h -7.5 z"
         style="fill:none;stroke:#000000;stroke-width:0.749999;stroke-linecap:butt;stroke-linejoin:miter;stroke-miterlimit:4;stroke-dasharray:none;stroke-opacity:1"
         id="path58006-6-3" /></g><g
       id="g58008-8-6"
       transform="matrix(0.6017009,0,0,0.6017009,-216.5754,-631.88822)"><path
         d="m 368.711,167.5 h 7.5 l 3.75,-3.75 h -7.5 z"
         style="fill:none;stroke:#000000;stroke-width:0.749999;stroke-linecap:butt;stroke-linejoin:miter;stroke-miterlimit:4;stroke-dasharray:none;stroke-opacity:1"
         id="path58010-0-1" /></g><g
       id="g58012-2-2"
       transform="matrix(0.6017009,0,0,0.6017009,-216.5754,-631.88822)"><path
         d="m 376.211,167.5 h 7.5 l 3.75,-3.75 h -7.5 z"
         style="fill:none;stroke:#000000;stroke-width:0.749999;stroke-linecap:butt;stroke-linejoin:miter;stroke-miterlimit:4;stroke-dasharray:none;stroke-opacity:1"
         id="path58014-1-9" /></g><g
       id="g58016-0-3"
       transform="matrix(0.6017009,0,0,0.6017009,-216.5754,-631.88822)"><path
         d="m 383.711,167.5 h 7.5 l 3.75,-3.75 h -7.5 z"
         style="fill:none;stroke:#000000;stroke-width:0.749999;stroke-linecap:butt;stroke-linejoin:miter;stroke-miterlimit:4;stroke-dasharray:none;stroke-opacity:1"
         id="path58018-5-1" /></g><g
       id="g58020-11-9"
       transform="matrix(0.6017009,0,0,0.6017009,-216.5754,-631.88822)"><path
         d="m 391.211,167.5 h 7.5 l 3.75,-3.75 h -7.5 z"
         style="fill:none;stroke:#000000;stroke-width:0.749999;stroke-linecap:butt;stroke-linejoin:miter;stroke-miterlimit:4;stroke-dasharray:none;stroke-opacity:1"
         id="path58022-0-4" /></g><g
       id="g58024-8-7"
       transform="matrix(0.6017009,0,0,0.6017009,-216.5754,-631.88822)"><path
         d="m 349.961,163.75 h 7.5 l 3.75,-3.75 h -7.5 z"
         style="fill:none;stroke:#000000;stroke-width:0.749999;stroke-linecap:butt;stroke-linejoin:miter;stroke-miterlimit:4;stroke-dasharray:none;stroke-opacity:1"
         id="path58026-5-8" /></g><g
       id="g58028-0-4"
       transform="matrix(0.6017009,0,0,0.6017009,-216.5754,-631.88822)"><path
         d="m 357.461,163.75 h 7.5 l 3.75,-3.75 h -7.5 z"
         style="fill:none;stroke:#000000;stroke-width:0.749999;stroke-linecap:butt;stroke-linejoin:miter;stroke-miterlimit:4;stroke-dasharray:none;stroke-opacity:1"
         id="path58030-6-5" /></g><g
       id="g58032-46-0"
       transform="matrix(0.6017009,0,0,0.6017009,-216.5754,-631.88822)"><path
         d="m 364.961,163.75 h 7.5 l 3.75,-3.75 h -7.5 z"
         style="fill:none;stroke:#000000;stroke-width:0.749999;stroke-linecap:butt;stroke-linejoin:miter;stroke-miterlimit:4;stroke-dasharray:none;stroke-opacity:1"
         id="path58034-2-3" /></g><g
       id="g58036-5-6"
       transform="matrix(0.6017009,0,0,0.6017009,-216.5754,-631.88822)"><path
         d="m 372.461,163.75 h 7.5 l 3.75,-3.75 h -7.5 z"
         style="fill:none;stroke:#000000;stroke-width:0.749999;stroke-linecap:butt;stroke-linejoin:miter;stroke-miterlimit:4;stroke-dasharray:none;stroke-opacity:1"
         id="path58038-8-1" /></g><g
       id="g58040-6-0"
       transform="matrix(0.6017009,0,0,0.6017009,-216.5754,-631.88822)"><path
         d="m 379.961,163.75 h 7.5 l 3.75,-3.75 h -7.5 z"
         style="fill:none;stroke:#000000;stroke-width:0.749999;stroke-linecap:butt;stroke-linejoin:miter;stroke-miterlimit:4;stroke-dasharray:none;stroke-opacity:1"
         id="path58042-2-6" /></g><g
       id="g58044-8-3"
       transform="matrix(0.6017009,0,0,0.6017009,-216.5754,-631.88822)"><path
         d="m 387.461,163.75 h 7.5 l 3.75,-3.75 h -7.5 z"
         style="fill:none;stroke:#000000;stroke-width:0.749999;stroke-linecap:butt;stroke-linejoin:miter;stroke-miterlimit:4;stroke-dasharray:none;stroke-opacity:1"
         id="path58046-4-2" /></g><g
       id="g58048-7-0"
       transform="matrix(0.6017009,0,0,0.6017009,-216.5754,-631.88822)"><path
         d="m 394.961,163.75 h 7.5 l 3.75,-3.75 h -7.5 z"
         style="fill:none;stroke:#000000;stroke-width:0.749999;stroke-linecap:butt;stroke-linejoin:miter;stroke-miterlimit:4;stroke-dasharray:none;stroke-opacity:1"
         id="path58050-2-6" /></g><g
       id="g58052-4-1"
       transform="matrix(0.6017009,0,0,0.6017009,-216.5754,-631.88822)"><path
         d="m 353.711,160 h 7.5 l 3.75,-3.75 h -7.5 z"
         style="fill:none;stroke:#000000;stroke-width:0.749999;stroke-linecap:butt;stroke-linejoin:miter;stroke-miterlimit:4;stroke-dasharray:none;stroke-opacity:1"
         id="path58054-0-5" /></g><g
       id="g58056-6-5"
       transform="matrix(0.6017009,0,0,0.6017009,-216.5754,-631.88822)"><path
         d="m 361.211,160 h 7.5 l 3.75,-3.75 h -7.5 z"
         style="fill:none;stroke:#000000;stroke-width:0.749999;stroke-linecap:butt;stroke-linejoin:miter;stroke-miterlimit:4;stroke-dasharray:none;stroke-opacity:1"
         id="path58058-2-4" /></g><g
       id="g58060-9-7"
       transform="matrix(0.6017009,0,0,0.6017009,-216.5754,-631.88822)"><path
         d="m 368.711,160 h 7.5 l 3.75,-3.75 h -7.5 z"
         style="fill:none;stroke:#000000;stroke-width:0.749999;stroke-linecap:butt;stroke-linejoin:miter;stroke-miterlimit:4;stroke-dasharray:none;stroke-opacity:1"
         id="path58062-9-6" /></g><g
       id="g58064-0-5"
       transform="matrix(0.6017009,0,0,0.6017009,-216.5754,-631.88822)"><path
         d="m 376.211,160 h 7.5 l 3.75,-3.75 h -7.5 z"
         style="fill:none;stroke:#000000;stroke-width:0.749999;stroke-linecap:butt;stroke-linejoin:miter;stroke-miterlimit:4;stroke-dasharray:none;stroke-opacity:1"
         id="path58066-8-6" /></g><g
       id="g58068-1-9"
       transform="matrix(0.6017009,0,0,0.6017009,-216.5754,-631.88822)"><path
         d="m 383.711,160 h 7.5 l 3.75,-3.75 h -7.5 z"
         style="fill:none;stroke:#000000;stroke-width:0.749999;stroke-linecap:butt;stroke-linejoin:miter;stroke-miterlimit:4;stroke-dasharray:none;stroke-opacity:1"
         id="path58070-3-3" /></g><g
       id="g58072-1-7"
       transform="matrix(0.6017009,0,0,0.6017009,-216.5754,-631.88822)"><path
         d="m 391.211,160 h 7.5 l 3.75,-3.75 h -7.5 z"
         style="fill:none;stroke:#000000;stroke-width:0.749999;stroke-linecap:butt;stroke-linejoin:miter;stroke-miterlimit:4;stroke-dasharray:none;stroke-opacity:1"
         id="path58074-1-4" /></g><g
       id="g58076-0-5"
       transform="matrix(0.6017009,0,0,0.6017009,-216.5754,-631.88822)"><path
         d="m 398.711,160 h 7.5 l 3.75,-3.75 h -7.5 z"
         style="fill:none;stroke:#000000;stroke-width:0.749999;stroke-linecap:butt;stroke-linejoin:miter;stroke-miterlimit:4;stroke-dasharray:none;stroke-opacity:1"
         id="path58078-3-2" /></g><g
       id="g58080-4-5"
       transform="matrix(0.6017009,0,0,0.6017009,-216.5754,-631.88822)"><path
         d="m 357.461,156.25 h 7.5 l 3.75,-3.75 h -7.5 z"
         style="fill:none;stroke:#000000;stroke-width:0.749999;stroke-linecap:butt;stroke-linejoin:miter;stroke-miterlimit:4;stroke-dasharray:none;stroke-opacity:1"
         id="path58082-0-4" /></g><g
       id="g58084-3-7"
       transform="matrix(0.6017009,0,0,0.6017009,-216.5754,-631.88822)"><path
         d="m 364.961,156.25 h 7.5 l 3.75,-3.75 h -7.5 z"
         style="fill:none;stroke:#000000;stroke-width:0.749999;stroke-linecap:butt;stroke-linejoin:miter;stroke-miterlimit:4;stroke-dasharray:none;stroke-opacity:1"
         id="path58086-9-4" /></g><g
       id="g58088-1-4"
       transform="matrix(0.6017009,0,0,0.6017009,-216.5754,-631.88822)"><path
         d="m 372.461,156.25 h 7.5 l 3.75,-3.75 h -7.5 z"
         style="fill:none;stroke:#000000;stroke-width:0.749999;stroke-linecap:butt;stroke-linejoin:miter;stroke-miterlimit:4;stroke-dasharray:none;stroke-opacity:1"
         id="path58090-9-3" /></g><g
       id="g58092-6-0"
       transform="matrix(0.6017009,0,0,0.6017009,-216.5754,-631.88822)"><path
         d="m 379.961,156.25 h 7.5 l 3.75,-3.75 h -7.5 z"
         style="fill:none;stroke:#000000;stroke-width:0.749999;stroke-linecap:butt;stroke-linejoin:miter;stroke-miterlimit:4;stroke-dasharray:none;stroke-opacity:1"
         id="path58094-9-7" /></g><g
       id="g58096-3-8"
       transform="matrix(0.6017009,0,0,0.6017009,-216.5754,-631.88822)"><path
         d="m 387.461,156.25 h 7.5 l 3.75,-3.75 h -7.5 z"
         style="fill:none;stroke:#000000;stroke-width:0.749999;stroke-linecap:butt;stroke-linejoin:miter;stroke-miterlimit:4;stroke-dasharray:none;stroke-opacity:1"
         id="path58098-3-6" /></g><g
       id="g58100-8-8"
       transform="matrix(0.6017009,0,0,0.6017009,-216.5754,-631.88822)"><path
         d="m 394.961,156.25 h 7.5 l 3.75,-3.75 h -7.5 z"
         style="fill:none;stroke:#000000;stroke-width:0.749999;stroke-linecap:butt;stroke-linejoin:miter;stroke-miterlimit:4;stroke-dasharray:none;stroke-opacity:1"
         id="path58102-05-8" /></g><g
       id="g58104-6-4"
       transform="matrix(0.6017009,0,0,0.6017009,-216.5754,-631.88822)"><path
         d="m 402.461,156.25 h 7.5 l 3.75,-3.75 h -7.5 z"
         style="fill:none;stroke:#000000;stroke-width:0.749999;stroke-linecap:butt;stroke-linejoin:miter;stroke-miterlimit:4;stroke-dasharray:none;stroke-opacity:1"
         id="path58106-6-3" /></g><g
       id="g58108-4-1"
       transform="matrix(0.6017009,0,0,0.6017009,-216.5754,-631.88822)"><path
         d="m 361.211,152.5 h 7.5 l 3.75,-3.75 h -7.5 z"
         style="fill:none;stroke:#000000;stroke-width:0.749999;stroke-linecap:butt;stroke-linejoin:miter;stroke-miterlimit:4;stroke-dasharray:none;stroke-opacity:1"
         id="path58110-0-4" /></g><g
       id="g58112-0-9"
       transform="matrix(0.6017009,0,0,0.6017009,-216.5754,-631.88822)"><path
         d="m 368.711,152.5 h 7.5 l 3.75,-3.75 h -7.5 z"
         style="fill:none;stroke:#000000;stroke-width:0.749999;stroke-linecap:butt;stroke-linejoin:miter;stroke-miterlimit:4;stroke-dasharray:none;stroke-opacity:1"
         id="path58114-46-2" /></g><g
       id="g58116-2-0"
       transform="matrix(0.6017009,0,0,0.6017009,-216.5754,-631.88822)"><path
         d="m 376.211,152.5 h 7.5 l 3.75,-3.75 h -7.5 z"
         style="fill:none;stroke:#000000;stroke-width:0.749999;stroke-linecap:butt;stroke-linejoin:miter;stroke-miterlimit:4;stroke-dasharray:none;stroke-opacity:1"
         id="path58118-6-6" /></g><g
       id="g58120-7-8"
       transform="matrix(0.6017009,0,0,0.6017009,-216.5754,-631.88822)"><path
         d="m 383.711,152.5 h 7.5 l 3.75,-3.75 h -7.5 z"
         style="fill:#ff0000;fill-opacity:1;fill-rule:nonzero;stroke:#000000;stroke-width:0.749999;stroke-linecap:butt;stroke-linejoin:miter;stroke-miterlimit:4;stroke-dasharray:none;stroke-opacity:1"
         id="path58122-5-9" /></g><g
       id="g58124-6-2"
       transform="matrix(0.6017009,0,0,0.6017009,-216.5754,-631.88822)"><path
         d="m 391.211,152.5 h 7.5 l 3.75,-3.75 h -7.5 z"
         style="fill:none;stroke:#000000;stroke-width:0.749999;stroke-linecap:butt;stroke-linejoin:miter;stroke-miterlimit:4;stroke-dasharray:none;stroke-opacity:1"
         id="path58126-9-6" /></g><g
       id="g58128-8-6"
       transform="matrix(0.6017009,0,0,0.6017009,-216.5754,-631.88822)"><path
         d="m 398.711,152.5 h 7.5 l 3.75,-3.75 h -7.5 z"
         style="fill:none;stroke:#000000;stroke-width:0.749999;stroke-linecap:butt;stroke-linejoin:miter;stroke-miterlimit:4;stroke-dasharray:none;stroke-opacity:1"
         id="path58130-7-4" /></g><g
       id="g58132-2-9"
       transform="matrix(0.6017009,0,0,0.6017009,-216.5754,-631.88822)"><path
         d="m 406.211,152.5 h 7.5 l 3.75,-3.75 h -7.5 z"
         style="fill:none;stroke:#000000;stroke-width:0.749999;stroke-linecap:butt;stroke-linejoin:miter;stroke-miterlimit:4;stroke-dasharray:none;stroke-opacity:1"
         id="path58134-8-5" /></g><g
       id="g58136-2-0"
       transform="matrix(0.6017009,0,0,0.6017009,-216.5754,-631.88822)"><path
         d="m 364.961,148.75 h 7.5 l 3.75,-3.75 h -7.5 z"
         style="fill:none;stroke:#000000;stroke-width:0.749999;stroke-linecap:butt;stroke-linejoin:miter;stroke-miterlimit:4;stroke-dasharray:none;stroke-opacity:1"
         id="path58138-9-4" /></g><g
       id="g58140-9-8"
       transform="matrix(0.6017009,0,0,0.6017009,-216.5754,-631.88822)"><path
         d="m 372.461,148.75 h 7.5 l 3.75,-3.75 h -7.5 z"
         style="fill:none;stroke:#000000;stroke-width:0.749999;stroke-linecap:butt;stroke-linejoin:miter;stroke-miterlimit:4;stroke-dasharray:none;stroke-opacity:1"
         id="path58142-6-7" /></g><g
       id="g58144-0-1"
       transform="matrix(0.6017009,0,0,0.6017009,-216.5754,-631.88822)"><path
         d="m 379.961,148.75 h 7.5 l 3.75,-3.75 h -7.5 z"
         style="fill:none;stroke:#000000;stroke-width:0.749999;stroke-linecap:butt;stroke-linejoin:miter;stroke-miterlimit:4;stroke-dasharray:none;stroke-opacity:1"
         id="path58146-2-7" /></g><g
       id="g58148-7-2"
       transform="matrix(0.6017009,0,0,0.6017009,-216.5754,-631.88822)"><path
         d="m 387.461,148.75 h 7.5 l 3.75,-3.75 h -7.5 z"
         style="fill:none;stroke:#000000;stroke-width:0.749999;stroke-linecap:butt;stroke-linejoin:miter;stroke-miterlimit:4;stroke-dasharray:none;stroke-opacity:1"
         id="path58150-6-7" /></g><g
       id="g58152-1-2"
       transform="matrix(0.6017009,0,0,0.6017009,-216.5754,-631.88822)"><path
         d="m 394.961,148.75 h 7.5 l 3.75,-3.75 h -7.5 z"
         style="fill:none;stroke:#000000;stroke-width:0.749999;stroke-linecap:butt;stroke-linejoin:miter;stroke-miterlimit:4;stroke-dasharray:none;stroke-opacity:1"
         id="path58154-3-2" /></g><g
       id="g58156-2-6"
       transform="matrix(0.6017009,0,0,0.6017009,-216.5754,-631.88822)"><path
         d="m 402.461,148.75 h 7.5 l 3.75,-3.75 h -7.5 z"
         style="fill:none;stroke:#000000;stroke-width:0.749999;stroke-linecap:butt;stroke-linejoin:miter;stroke-miterlimit:4;stroke-dasharray:none;stroke-opacity:1"
         id="path58158-1-1" /></g><g
       id="g58160-5-0"
       transform="matrix(0.6017009,0,0,0.6017009,-216.5754,-631.88822)"><path
         d="m 409.961,148.75 h 7.5 l 3.75,-3.75 h -7.5 z"
         style="fill:none;stroke:#000000;stroke-width:0.749999;stroke-linecap:butt;stroke-linejoin:miter;stroke-miterlimit:4;stroke-dasharray:none;stroke-opacity:1"
         id="path58162-9-6" /></g><g
       id="g58164-9-1"
       transform="matrix(0.6017009,0,0,0.6017009,-216.5754,-631.88822)"><path
         d="m 368.711,145 h 7.5 l 3.75,-3.75 h -7.5 z"
         style="fill:none;stroke:#000000;stroke-width:0.749999;stroke-linecap:butt;stroke-linejoin:miter;stroke-miterlimit:4;stroke-dasharray:none;stroke-opacity:1"
         id="path58166-1-5" /></g><g
       id="g58168-4-9"
       transform="matrix(0.6017009,0,0,0.6017009,-216.5754,-631.88822)"><path
         d="m 376.211,145 h 7.5 l 3.75,-3.75 h -7.5 z"
         style="fill:none;stroke:#000000;stroke-width:0.749999;stroke-linecap:butt;stroke-linejoin:miter;stroke-miterlimit:4;stroke-dasharray:none;stroke-opacity:1"
         id="path58170-9-4" /></g><g
       id="g58172-1-9"
       transform="matrix(0.6017009,0,0,0.6017009,-216.5754,-631.88822)"><path
         d="m 383.711,145 h 7.5 l 3.75,-3.75 h -7.5 z"
         style="fill:none;stroke:#000000;stroke-width:0.749999;stroke-linecap:butt;stroke-linejoin:miter;stroke-miterlimit:4;stroke-dasharray:none;stroke-opacity:1"
         id="path58174-0-0" /></g><g
       id="g58176-7-9"
       transform="matrix(0.6017009,0,0,0.6017009,-216.5754,-631.88822)"><path
         d="m 391.211,145 h 7.5 l 3.75,-3.75 h -7.5 z"
         style="fill:none;stroke:#000000;stroke-width:0.749999;stroke-linecap:butt;stroke-linejoin:miter;stroke-miterlimit:4;stroke-dasharray:none;stroke-opacity:1"
         id="path58178-5-1" /></g><g
       id="g58180-8-7"
       transform="matrix(0.6017009,0,0,0.6017009,-216.5754,-631.88822)"><path
         d="m 398.711,145 h 7.5 l 3.75,-3.75 h -7.5 z"
         style="fill:none;stroke:#000000;stroke-width:0.749999;stroke-linecap:butt;stroke-linejoin:miter;stroke-miterlimit:4;stroke-dasharray:none;stroke-opacity:1"
         id="path58182-7-7" /></g><g
       id="g58184-04-1"
       transform="matrix(0.6017009,0,0,0.6017009,-216.5754,-631.88822)"><path
         d="m 406.211,145 h 7.5 l 3.75,-3.75 h -7.5 z"
         style="fill:none;stroke:#000000;stroke-width:0.749999;stroke-linecap:butt;stroke-linejoin:miter;stroke-miterlimit:4;stroke-dasharray:none;stroke-opacity:1"
         id="path58186-8-1" /></g><g
       id="g58188-0-5"
       transform="matrix(0.6017009,0,0,0.6017009,-216.5754,-631.88822)"><path
         d="m 413.711,145 h 7.5 l 3.75,-3.75 h -7.5 z"
         style="fill:none;stroke:#000000;stroke-width:0.749999;stroke-linecap:butt;stroke-linejoin:miter;stroke-miterlimit:4;stroke-dasharray:none;stroke-opacity:1"
         id="path58190-4-9" /></g><g
       id="g58192-2-7"
       transform="matrix(0.6017009,0,0,0.6017009,-216.5754,-631.88822)"><path
         d="m 372.461,141.25 h 7.5 l 3.75,-3.75 h -7.5 z"
         style="fill:none;stroke:#000000;stroke-width:0.749999;stroke-linecap:butt;stroke-linejoin:miter;stroke-miterlimit:4;stroke-dasharray:none;stroke-opacity:1"
         id="path58194-9-7" /></g><g
       id="g58196-6-6"
       transform="matrix(0.6017009,0,0,0.6017009,-216.5754,-631.88822)"><path
         d="m 379.961,141.25 h 7.5 l 3.75,-3.75 h -7.5 z"
         style="fill:none;stroke:#000000;stroke-width:0.749999;stroke-linecap:butt;stroke-linejoin:miter;stroke-miterlimit:4;stroke-dasharray:none;stroke-opacity:1"
         id="path58198-1-7" /></g><g
       id="g58200-0-3"
       transform="matrix(0.6017009,0,0,0.6017009,-216.5754,-631.88822)"><path
         d="m 387.461,141.25 h 7.5 l 3.75,-3.75 h -7.5 z"
         style="fill:none;stroke:#000000;stroke-width:0.749999;stroke-linecap:butt;stroke-linejoin:miter;stroke-miterlimit:4;stroke-dasharray:none;stroke-opacity:1"
         id="path58202-4-6" /></g><g
       id="g58204-2-5"
       transform="matrix(0.6017009,0,0,0.6017009,-216.5754,-631.88822)"><path
         d="m 394.961,141.25 h 7.5 l 3.75,-3.75 h -7.5 z"
         style="fill:none;stroke:#000000;stroke-width:0.749999;stroke-linecap:butt;stroke-linejoin:miter;stroke-miterlimit:4;stroke-dasharray:none;stroke-opacity:1"
         id="path58206-2-6" /></g><g
       id="g58208-2-3"
       transform="matrix(0.6017009,0,0,0.6017009,-216.5754,-631.88822)"><path
         d="m 402.461,141.25 h 7.5 l 3.75,-3.75 h -7.5 z"
         style="fill:none;stroke:#000000;stroke-width:0.749999;stroke-linecap:butt;stroke-linejoin:miter;stroke-miterlimit:4;stroke-dasharray:none;stroke-opacity:1"
         id="path58210-0-9" /></g><g
       id="g58212-5-4"
       transform="matrix(0.6017009,0,0,0.6017009,-216.5754,-631.88822)"><path
         d="m 409.961,141.25 h 7.5 l 3.75,-3.75 h -7.5 z"
         style="fill:none;stroke:#000000;stroke-width:0.749999;stroke-linecap:butt;stroke-linejoin:miter;stroke-miterlimit:4;stroke-dasharray:none;stroke-opacity:1"
         id="path58214-52-8" /></g><g
       id="g58216-9-1"
       transform="matrix(0.6017009,0,0,0.6017009,-216.5754,-631.88822)"><path
         d="m 417.461,141.25 h 7.5 l 3.75,-3.75 h -7.5 z"
         style="fill:none;stroke:#000000;stroke-width:0.749999;stroke-linecap:butt;stroke-linejoin:miter;stroke-miterlimit:4;stroke-dasharray:none;stroke-opacity:1"
         id="path58218-0-2" /></g><g
       id="g58220-2-9"
       transform="matrix(0.6017009,0,0,0.6017009,-216.5754,-631.88822)"><path
         d="m 398.711,167.5 h 7.5 l 3.75,-3.75 h -7.5 z"
         style="fill:none;stroke:#000000;stroke-width:0.749999;stroke-linecap:butt;stroke-linejoin:miter;stroke-miterlimit:4;stroke-dasharray:none;stroke-opacity:1"
         id="path58222-8-3" /></g><g
       id="g58224-3-9"
       transform="matrix(0.6017009,0,0,0.6017009,-216.5754,-631.88822)"><path
         d="m 402.461,163.75 h 7.5 l 3.75,-3.75 h -7.5 z"
         style="fill:none;stroke:#000000;stroke-width:0.749999;stroke-linecap:butt;stroke-linejoin:miter;stroke-miterlimit:4;stroke-dasharray:none;stroke-opacity:1"
         id="path58226-8-0" /></g><g
       id="g58228-0-8"
       transform="matrix(0.6017009,0,0,0.6017009,-216.5754,-631.88822)"><path
         d="m 406.211,160 h 7.5 l 3.75,-3.75 h -7.5 z"
         style="fill:none;stroke:#000000;stroke-width:0.749999;stroke-linecap:butt;stroke-linejoin:miter;stroke-miterlimit:4;stroke-dasharray:none;stroke-opacity:1"
         id="path58230-4-8" /></g><g
       id="g58232-0-5"
       transform="matrix(0.6017009,0,0,0.6017009,-216.5754,-631.88822)"><path
         d="m 409.961,156.25 h 7.5 l 3.75,-3.75 h -7.5 z"
         style="fill:none;stroke:#000000;stroke-width:0.749999;stroke-linecap:butt;stroke-linejoin:miter;stroke-miterlimit:4;stroke-dasharray:none;stroke-opacity:1"
         id="path58234-91-0" /></g><g
       id="g58236-9-9"
       transform="matrix(0.6017009,0,0,0.6017009,-216.5754,-631.88822)"><path
         d="m 413.711,152.5 h 7.5 l 3.75,-3.75 h -7.5 z"
         style="fill:none;stroke:#000000;stroke-width:0.749999;stroke-linecap:butt;stroke-linejoin:miter;stroke-miterlimit:4;stroke-dasharray:none;stroke-opacity:1"
         id="path58238-6-6" /></g><g
       id="g58240-2-3"
       transform="matrix(0.6017009,0,0,0.6017009,-216.5754,-631.88822)"><path
         d="m 417.461,148.75 h 7.5 l 3.75,-3.75 h -7.5 z"
         style="fill:none;stroke:#000000;stroke-width:0.749999;stroke-linecap:butt;stroke-linejoin:miter;stroke-miterlimit:4;stroke-dasharray:none;stroke-opacity:1"
         id="path58242-54-8" /></g><g
       id="g58244-4-5"
       transform="matrix(0.6017009,0,0,0.6017009,-216.5754,-631.88822)"><path
         d="m 421.211,145 h 7.5 l 3.75,-3.75 h -7.5 z"
         style="fill:none;stroke:#000000;stroke-width:0.749999;stroke-linecap:butt;stroke-linejoin:miter;stroke-miterlimit:4;stroke-dasharray:none;stroke-opacity:1"
         id="path58246-99-6" /></g><g
       id="g58248-3-1"
       transform="matrix(0.6017009,0,0,0.6017009,-216.5754,-631.88822)"><path
         d="m 424.961,141.25 h 7.5 l 3.75,-3.75 h -7.5 z"
         style="fill:none;stroke:#000000;stroke-width:0.749999;stroke-linecap:butt;stroke-linejoin:bevel;stroke-miterlimit:4;stroke-dasharray:none;stroke-opacity:1"
         id="path58250-6-1" /></g><g
       id="g58260-0-5"
       transform="matrix(0.6017009,0,0,0.6017009,-216.5754,-631.88822)"><path
         d="m 383.711,145 h 7.5 v 7.5 h -7.5 z"
         style="fill:#d5e7d5;fill-opacity:1;fill-rule:nonzero;stroke:#008033;stroke-width:0.749999;stroke-linecap:butt;stroke-linejoin:miter;stroke-miterlimit:4;stroke-dasharray:none;stroke-opacity:1"
         id="path58262-50-9" /></g><g
       id="g58264-2-8"
       transform="matrix(0.6017009,0,0,0.6017009,-216.5754,-631.88822)"><path
         d="m 383.711,137.5 h 7.5 v 7.5 h -7.5 z"
         style="fill:#d5e7d5;fill-opacity:1;fill-rule:nonzero;stroke:#008033;stroke-width:0.749999;stroke-linecap:butt;stroke-linejoin:miter;stroke-miterlimit:4;stroke-dasharray:none;stroke-opacity:1"
         id="path58266-9-4" /></g><g
       id="g58268-4-8"
       transform="matrix(0.6017009,0,0,0.6017009,-216.5754,-631.88822)"><path
         d="m 391.211,115 3.75,-3.75 v 7.5 l -3.75,3.75 z"
         style="fill:#d5e7d5;fill-opacity:1;fill-rule:nonzero;stroke:#008033;stroke-width:0.751181;stroke-linecap:butt;stroke-linejoin:bevel;stroke-miterlimit:4;stroke-dasharray:none;stroke-opacity:1"
         id="path58270-3-1" /></g><g
       id="g58272-5-0"
       transform="matrix(0.6017009,0,0,0.6017009,-216.5754,-631.88822)"><path
         d="m 383.711,130 h 7.5 v 7.5 h -7.5 z"
         style="fill:#d5e7d5;fill-opacity:1;fill-rule:nonzero;stroke:#008033;stroke-width:0.749999;stroke-linecap:butt;stroke-linejoin:miter;stroke-miterlimit:4;stroke-dasharray:none;stroke-opacity:1"
         id="path58274-1-3" /></g><g
       id="g58276-7-0"
       transform="matrix(0.6017009,0,0,0.6017009,-216.5754,-631.88822)"><path
         d="m 391.211,122.5 3.75,-3.75 v 7.5 l -3.75,3.75 z"
         style="fill:#d5e7d5;fill-opacity:1;fill-rule:nonzero;stroke:#008033;stroke-width:0.749999;stroke-linecap:butt;stroke-linejoin:miter;stroke-miterlimit:4;stroke-dasharray:none;stroke-opacity:1"
         id="path58278-4-4" /></g><g
       id="g58280-3-4"
       transform="matrix(0.6017009,0,0,0.6017009,-216.5754,-631.88822)"><path
         d="m 383.711,122.5 h 7.5 v 7.5 h -7.5 z"
         style="fill:#d5e7d5;fill-opacity:1;fill-rule:nonzero;stroke:#008033;stroke-width:0.749999;stroke-linecap:butt;stroke-linejoin:miter;stroke-miterlimit:4;stroke-dasharray:none;stroke-opacity:1"
         id="path58282-1-4" /></g><g
       id="g58284-4-4"
       transform="matrix(0.6017009,0,0,0.6017009,-216.5754,-631.88822)"><path
         d="m 391.211,130 3.75,-3.75 v 7.5 l -3.75,3.75 z"
         style="fill:#d5e7d5;fill-opacity:1;fill-rule:nonzero;stroke:#008033;stroke-width:0.749999;stroke-linecap:butt;stroke-linejoin:miter;stroke-miterlimit:4;stroke-dasharray:none;stroke-opacity:1"
         id="path58286-6-7" /></g><g
       id="g58288-9-6"
       transform="matrix(0.6017009,0,0,0.6017009,-216.5754,-631.88822)"><path
         d="m 383.711,115 h 7.5 v 7.5 h -7.5 z"
         style="fill:#d5e7d5;fill-opacity:1;fill-rule:nonzero;stroke:#008033;stroke-width:0.749999;stroke-linecap:butt;stroke-linejoin:bevel;stroke-miterlimit:4;stroke-dasharray:none;stroke-opacity:1"
         id="path58290-42-3" /></g><g
       id="g58292-2-1"
       transform="matrix(0.6017009,0,0,0.6017009,-216.5754,-631.88822)"><path
         d="m 391.211,137.5 3.75,-3.75 v 7.5 l -3.75,3.75 z"
         style="fill:#d5e7d5;fill-opacity:1;fill-rule:nonzero;stroke:#008033;stroke-width:0.749999;stroke-linecap:butt;stroke-linejoin:miter;stroke-miterlimit:4;stroke-dasharray:none;stroke-opacity:1"
         id="path58294-6-7" /></g><g
       id="g58296-4-5"
       transform="matrix(0.6017009,0,0,0.6017009,-216.5754,-631.88822)"
       style="fill:#d5e7d5;fill-opacity:1"><path
         d="m 383.711,115 h 7.5 l 3.75,-3.75 h -7.5 z"
         style="fill:#d5e7d5;fill-opacity:1;fill-rule:nonzero;stroke:#008033;stroke-width:0.751181;stroke-linecap:butt;stroke-linejoin:bevel;stroke-miterlimit:4;stroke-dasharray:none;stroke-opacity:1"
         id="path58298-1-9" /></g><g
       id="g58300-2-6"
       transform="matrix(0.6017009,0,0,0.6017009,-216.5754,-631.88822)"><path
         d="m 391.211,145 3.75,-3.75 v 7.5 l -3.75,3.75 z"
         style="fill:#d5e7d5;fill-opacity:1;fill-rule:nonzero;stroke:#008033;stroke-width:0.749999;stroke-linecap:butt;stroke-linejoin:bevel;stroke-miterlimit:4;stroke-dasharray:none;stroke-opacity:1"
         id="path58302-8-2" /></g><g
       id="g58304-8-1"
       transform="matrix(0.6017009,0,0,0.6017009,-216.5754,-631.88822)"><g
         id="g58306-9-7" /><g
         id="g58328-2-8"><g
           clip-path="url(#clipPath58310-2-5)"
           opacity="0.5"
           id="g58326-8-5"><g
             id="g58324-8-7"><g
               id="g58314-8-4"><path
                 d="m 346.211,130 h 60 v 37.5 h -60 z"
                 style="fill:#d5e7d5;fill-opacity:1;fill-rule:nonzero;stroke:#000000;stroke-width:0.749999;stroke-linecap:butt;stroke-linejoin:bevel;stroke-miterlimit:4;stroke-dasharray:none;stroke-opacity:1"
                 id="path58312-68-1" /></g><g
               id="g58318-3-8"><path
                 d="m 406.211,130 30,-30 v 37.5 l -30,30 z"
                 style="fill:#d5e7d5;fill-opacity:1;fill-rule:nonzero;stroke:#000000;stroke-width:0.749999;stroke-linecap:butt;stroke-linejoin:bevel;stroke-miterlimit:4;stroke-dasharray:none;stroke-opacity:1"
                 id="path58316-8-5" /></g><g
               id="g58322-3-9"><path
                 d="m 346.211,130 30,-30 h 60 l -30,30 z"
                 style="fill:#d5e7d5;fill-opacity:1;fill-rule:nonzero;stroke:#000000;stroke-width:0.749999;stroke-linecap:butt;stroke-linejoin:bevel;stroke-miterlimit:4;stroke-dasharray:none;stroke-opacity:1"
                 id="path58320-3-7" /></g></g></g></g></g></g></svg>
